<svg width="70" height="70" viewBox="0 0 70 70" fill="none" xmlns="http://www.w3.org/2000/svg">
<g clip-path="url(#clip0_26_2230)">
<path d="M58.4959 54.296H41.0025C41.3962 53.6529 41.604 52.9288 41.604 52.1741C41.604 50.995 41.0922 49.8838 40.1647 49.0482L26.4009 36.6647C24.395 34.8622 20.6062 33.4513 17.7734 33.4513H3.73405C3.02968 33.4513 2.45874 33.9632 2.45874 34.5975V50.586C2.45874 51.2204 3.02968 51.7322 3.73405 51.7322H9.69061C10.1806 51.7322 10.605 51.485 10.8216 51.1219H11.7075C12.3047 51.1219 13.3087 51.3538 13.8578 51.6163L30.7453 62.2388C30.7781 62.2607 30.8131 62.2825 30.8503 62.3C31.7866 62.7747 33.2675 63.1313 34.3 63.1313H58.5003C61.2062 63.1313 63.4112 61.1494 63.4112 58.7125C63.4112 56.2757 61.204 54.296 58.4959 54.296ZM8.4153 49.4419H5.00937V35.7504H8.4153V49.4419ZM58.4959 60.8388H34.2978C33.7181 60.8388 32.7119 60.5982 32.1475 60.3269L15.2622 49.7C15.2272 49.6804 15.1922 49.6585 15.155 49.6432C14.2406 49.1794 12.7575 48.8316 11.7053 48.8316H10.9659V35.7504H17.7734C19.9391 35.7504 23.0628 36.9141 24.5962 38.2922L38.3622 50.6757C38.8062 51.076 39.049 51.6119 39.049 52.1785C39.049 52.745 38.8062 53.2788 38.3622 53.6813C37.9159 54.0816 37.3231 54.3004 36.6931 54.3004C36.0609 54.3004 35.4703 54.0794 35.0219 53.6791L23.45 43.3235C22.9512 42.8772 22.1441 42.8794 21.6475 43.3279C21.1487 43.7785 21.1509 44.5025 21.6497 44.951L33.2172 55.3044C34.1469 56.1379 35.3784 56.5972 36.6909 56.5972H58.4937C59.7953 56.5972 60.8541 57.551 60.8541 58.7213C60.8541 59.8916 59.7975 60.8388 58.4959 60.8388Z" fill="#D33393"/>
<path d="M66.5022 15.7697H60.5456C60.0534 15.7697 59.6312 16.0191 59.4147 16.3822H58.5309C57.9337 16.3822 56.9297 16.1503 56.3784 15.89L39.4931 5.26531C39.4581 5.24344 39.4253 5.22156 39.3859 5.20406C38.4518 4.73375 36.9709 4.375 35.9406 4.375H11.7403C9.03216 4.375 6.82935 6.35688 6.82935 8.79375C6.82935 11.2284 9.03216 13.2125 11.7403 13.2125H29.2359C28.2165 14.8903 28.4943 17.0406 30.0715 18.4603L43.8375 30.8438C45.8412 32.6463 49.63 34.0572 52.465 34.0572H66.5022C67.2065 34.0572 67.7775 33.5453 67.7775 32.9109V16.9203C67.7775 16.2859 67.2087 15.7697 66.5022 15.7697ZM59.2703 31.7603H52.4672C50.2993 31.7603 47.1734 30.5966 45.6422 29.2184L31.8784 16.835C30.9597 16.0059 30.9597 14.6584 31.8784 13.8316C32.7972 13.0047 34.2934 13.0047 35.2187 13.8337L46.7906 24.1872C47.2893 24.6334 48.0965 24.6313 48.5931 24.1828C49.0897 23.7322 49.0875 23.0081 48.5887 22.5597L37.019 12.2084C36.0872 11.3706 34.8665 10.9397 33.6415 10.9178C33.6087 10.9178 33.5781 10.9156 33.5453 10.9156H11.7403C10.4387 10.9156 9.37997 9.96187 9.37997 8.79375C9.37997 7.62125 10.4387 6.66969 11.7403 6.66969H35.9384C36.5181 6.66969 37.5265 6.9125 38.0887 7.18375L54.9762 17.8084C55.0112 17.8303 55.0462 17.85 55.0812 17.8675C55.9978 18.3291 57.4809 18.6791 58.5331 18.6791H59.2703V31.7603ZM65.2268 31.7603H61.8209V18.0666H65.2268V31.7603Z" fill="#D33393"/>
</g>
<defs>
<clipPath id="clip0_26_2230">
<rect width="70" height="70" fill="white"/>
</clipPath>
</defs>
</svg>
