<svg width="70" height="70" viewBox="0 0 70 70" fill="none" xmlns="http://www.w3.org/2000/svg">
<g clip-path="url(#clip0_26_2246)">
<path d="M64.4745 46.7731C63.9473 45.6334 62.9848 44.754 61.8035 44.3231C60.6201 43.8943 59.3164 43.949 58.1832 44.4849L45.8982 50.1987C46.7142 48.7352 46.6901 46.9459 45.8435 45.5021C44.9904 44.0518 43.4351 43.1615 41.7551 43.1615H27.5364C24.9726 43.1615 22.6385 44.6402 21.5426 46.9568H19.0007V44.1109C19.0007 43.5881 18.5785 43.1593 18.0535 43.1593H8.57292C8.05011 43.1593 7.62573 43.5859 7.62573 44.1109V63.0721C7.62573 63.5949 8.05011 64.0193 8.57292 64.0193H18.0535C18.5785 64.0193 19.0007 63.5971 19.0007 63.0721V61.1756H43.7545C44.4479 61.1734 45.1326 61.0268 45.7626 60.7337L62.1907 53.0752C64.5489 51.9596 65.5704 49.1465 64.4745 46.7731ZM17.1064 62.1227H9.52448V45.0581H17.1064V62.1227ZM61.3857 51.3559L44.9598 59.0143C44.5835 59.1893 44.1745 59.279 43.7545 59.279H19.0007V48.8512H22.177C22.5839 48.8512 22.9426 48.5974 23.0717 48.2146C23.7389 46.3202 25.5282 45.0559 27.5364 45.0602H41.7551C43.3279 45.0602 44.5989 46.3334 44.5989 47.904C44.5989 49.479 43.3279 50.7521 41.7551 50.7521H33.2239V52.6443H44.1023C44.7935 52.6443 45.476 52.4934 46.1017 52.2002L58.9882 46.2043C59.6685 45.8849 60.4451 45.8499 61.1539 46.1059C61.8582 46.3618 62.4335 46.8846 62.7529 47.5693C62.9257 47.9499 63.0198 48.359 63.0198 48.779C63.0198 49.8793 62.3832 50.8812 61.3857 51.3559Z" fill="#D33393" stroke="#D33393" stroke-width="0.765625" stroke-miterlimit="10"/>
<path d="M54.0401 18.8124L36.8267 6.21025C36.4942 5.96963 36.0436 5.96963 35.7111 6.21025L18.4998 18.8124C18.0798 19.1187 17.9879 19.7093 18.2964 20.1315C18.6026 20.5537 19.1911 20.6434 19.6132 20.3349L36.2711 8.14182L52.9245 20.3349C53.0907 20.4574 53.2876 20.5165 53.4823 20.5165C53.7711 20.5165 54.0576 20.3809 54.2436 20.1293C54.552 19.7093 54.4601 19.1187 54.0401 18.8124Z" fill="#D33393" stroke="#D33393" stroke-width="0.765625" stroke-miterlimit="10"/>
<path d="M32.4931 38.3993H49.4769C49.9997 38.3993 50.4262 37.9771 50.4262 37.4565V21.4921C50.424 20.9715 50.0019 20.5515 49.4769 20.5515C48.9584 20.5515 48.534 20.9715 48.534 21.4921V36.5093H31.5503" fill="#D33393"/>
<path d="M32.4931 38.3993H49.4769C49.9997 38.3993 50.4262 37.9771 50.4262 37.4565V21.4921C50.424 20.9715 50.0019 20.5515 49.4769 20.5515C48.9584 20.5515 48.534 20.9715 48.534 21.4921V36.5093H31.5503" stroke="#D33393" stroke-width="0.765625" stroke-miterlimit="10"/>
<path d="M31.5504 36.5093H24.0035V21.4921C24.0035 20.9715 23.5813 20.5515 23.0585 20.5515C22.5379 20.5515 22.1157 20.9715 22.1157 21.4921V37.4565C22.1157 37.9749 22.5379 38.3993 23.0585 38.3993H32.4932" fill="#D33393"/>
<path d="M31.5504 36.5093H24.0035V21.4921C24.0035 20.9715 23.5813 20.5515 23.0585 20.5515C22.5379 20.5515 22.1157 20.9715 22.1157 21.4921V37.4565C22.1157 37.9749 22.5379 38.3993 23.0585 38.3993H32.4932" stroke="#D33393" stroke-width="0.765625" stroke-miterlimit="10"/>
<path d="M41.4511 17.3337V18.83H37.8965C38.6118 19.3834 39.0733 20.1447 39.279 21.1116H41.4511V22.5794H39.3446C39.2396 23.7781 38.743 24.7384 37.8505 25.4559C36.9602 26.1734 35.7724 26.5278 34.2958 26.5278H34.1011L38.5746 32.1256H36.3827L32.0405 26.5278V25.0622H34.1886C36.2668 25.0622 37.3999 24.2353 37.588 22.5794H32.0383V21.1116H37.4983C37.1352 19.5891 36.024 18.83 34.1668 18.83H32.0405V17.3337H41.4511Z" fill="#D33393" stroke="#D33393" stroke-width="0.765625" stroke-miterlimit="10"/>
</g>
<defs>
<clipPath id="clip0_26_2246">
<rect width="70" height="70" fill="white"/>
</clipPath>
</defs>
</svg>
