<svg width="70" height="70" viewBox="0 0 70 70" fill="none" xmlns="http://www.w3.org/2000/svg">
<g clip-path="url(#clip0_26_2267)">
<path d="M15.0543 3.021C10.5765 3.021 6.93652 6.54287 6.93652 10.8763C6.93652 15.2076 10.5787 18.7316 15.0543 18.7316C19.53 18.7316 23.17 15.2076 23.17 10.8763C23.1721 6.54287 19.53 3.021 15.0543 3.021ZM15.0543 14.8051C12.8165 14.8051 10.9965 13.0419 10.9965 10.8785C10.9965 8.71506 12.8187 6.95193 15.0543 6.95193C17.2878 6.95193 19.1121 8.71506 19.1121 10.8785C19.1121 13.0419 17.2878 14.8051 15.0543 14.8051Z" fill="#D23292" stroke="#F1F1F2" stroke-width="2.1875" stroke-miterlimit="10"/>
<path d="M27.2214 44.0673L25.3708 26.1998C25.163 24.1807 23.4261 22.6626 21.3327 22.6626H19.1124C18.5721 22.6626 18.0558 22.8704 17.6752 23.2357L15.0546 25.7732L12.4317 23.2357C12.0511 22.8704 11.5327 22.6626 10.9946 22.6626H8.77424C6.68299 22.6626 4.94612 24.1807 4.7383 26.1954L2.88987 44.0673C2.83299 44.6207 3.02112 45.172 3.40393 45.5788C3.78674 45.9901 4.3358 46.2263 4.90674 46.2263H7.12705L8.79174 62.3242C9.00174 64.3454 10.7408 65.8635 12.8364 65.8635H17.2771C19.3727 65.8635 21.1096 64.3454 21.3152 62.3307L22.9821 46.2263H25.2024C25.7733 46.2263 26.3224 45.9923 26.7074 45.5788C27.0902 45.1698 27.2761 44.6164 27.2214 44.0673ZM21.1402 42.2998C20.0967 42.2998 19.2261 43.0632 19.1211 44.0673L17.2771 61.9392H12.8364L10.9902 44.0673C10.883 43.0632 10.0124 42.2998 8.96893 42.2998H7.1533L8.77643 26.587H10.1633L13.6239 29.9404C14.3874 30.6798 15.7349 30.6798 16.4939 29.9404L19.9567 26.587H21.3414L22.9667 42.2998H21.1402Z" fill="#D23292" stroke="#F1F1F2" stroke-width="2.1875" stroke-miterlimit="10"/>
<path d="M35.3459 3.021C34.5737 3.021 33.8475 3.06475 33.0753 3.15225L31.2881 3.35787V65.5288L33.0753 65.7344C33.8475 65.8219 34.5737 65.8679 35.3459 65.8679C53.2484 65.8635 67.8128 51.7672 67.8128 34.4444C67.8128 17.1172 53.2484 3.021 35.3459 3.021ZM58.3387 18.3554C55.3725 19.4972 52.345 20.4444 49.2431 21.1291C47.4318 16.1066 44.575 11.4779 40.8584 7.48131C48.0159 8.84631 54.1978 12.8363 58.3387 18.3554ZM35.3459 7.67162C39.78 11.6288 43.1268 16.4785 45.1656 21.8444C41.9412 22.3344 38.6753 22.6626 35.3459 22.6626V7.67162ZM35.3459 26.5869C39.0865 26.5869 42.7528 26.2129 46.3709 25.6288C47.1037 28.4857 47.5215 31.4344 47.5215 34.4444C47.5215 37.4522 47.1037 40.4032 46.3687 43.2579C42.7528 42.6716 39.0865 42.2997 35.3459 42.2997V26.5869ZM35.3459 61.2129V46.2329C38.6425 46.2569 41.9128 46.5807 45.1546 47.0729C43.1137 52.4279 39.7734 57.2688 35.3459 61.2129ZM40.8584 61.4054C44.5684 57.4154 47.4165 52.7997 49.2256 47.7882C52.3318 48.4663 55.3681 49.3938 58.3343 50.5335C54.1978 56.0547 48.0159 60.0382 40.8584 61.4054ZM50.3653 43.9885C51.144 40.8954 51.5771 37.6994 51.5771 34.4422C51.5771 31.1851 51.1462 27.9869 50.3653 24.8916C53.8281 24.1172 57.2143 23.0607 60.5218 21.7438C62.5737 25.5479 63.7571 29.8594 63.7571 34.4422C63.7571 39.0207 62.5759 43.3322 60.5218 47.1363C57.2165 45.8194 53.8325 44.7607 50.3653 43.9885Z" fill="#D23292" stroke="#F1F1F2" stroke-width="2.1875" stroke-miterlimit="10"/>
</g>
<defs>
<clipPath id="clip0_26_2267">
<rect width="70" height="70" fill="white"/>
</clipPath>
</defs>
</svg>
