<svg width="70" height="70" viewBox="0 0 70 70" fill="none" xmlns="http://www.w3.org/2000/svg">
<g clip-path="url(#clip0_26_2313)">
<path d="M65.744 2.45142H16.2722H3.97042C3.13182 2.45142 2.45142 3.13182 2.45142 3.97042V22.652V28.1722V35.693V65.7454C2.45142 66.584 3.13182 67.263 3.97042 67.263H11.8902H28.0462H37.7986H47.7176H65.744C66.584 67.263 67.263 66.584 67.263 65.7454V3.97042C67.263 3.13182 66.584 2.45142 65.744 2.45142ZM5.49082 5.48942H14.7518V16.422C14.7518 19.019 12.6392 21.133 10.0422 21.133H5.49222L5.49082 5.48942ZM5.49082 29.6912H23.3856V34.1726H5.49082V29.6912ZM26.5244 64.2236H21.4858V56.616C21.4858 55.7746 20.8082 55.0956 19.9668 55.0956C19.1296 55.0956 18.4492 55.7746 18.4492 56.616V64.2236H13.4092V48.531H26.5258V64.2236H26.5244ZM36.2782 55.72C36.2782 55.7214 36.2782 55.7242 36.2782 55.727V64.2236H29.5652V47.012C29.5652 46.172 28.8848 45.4916 28.0462 45.4916H11.8902C11.0516 45.4916 10.3712 46.172 10.3712 47.012V64.225H5.49082V37.212H24.906C25.7446 37.212 26.425 36.5316 26.425 35.693V29.6926H31.7786C28.525 31.7114 26.355 35.3136 26.355 39.417C26.355 40.2556 27.0326 40.936 27.874 40.936H36.2782V55.72ZM36.2782 37.8966H29.5302C30.156 34.4792 32.8594 31.7772 36.2782 31.1514V37.8966ZM36.2782 26.6532H24.906H5.49082V24.1724H10.0408C14.3136 24.1724 17.7898 20.6976 17.7898 16.4234V5.48942H30.6208C28.021 7.58802 26.355 10.7968 26.355 14.3878C26.355 15.2278 27.0326 15.9068 27.874 15.9068H36.2782V26.6532ZM36.2782 12.8702H29.5302C30.156 9.45422 32.8594 6.75362 36.2782 6.12782V12.8702ZM39.3176 64.2236V57.3832C42.7392 58.0188 45.444 60.76 46.0642 64.2236H39.3176ZM49.1372 64.2236C48.461 59.0828 44.415 54.9962 39.3176 54.3116V39.4156V29.6912H53.5304C54.369 29.6912 55.0508 29.0108 55.0508 28.1722C55.0508 27.3322 54.369 26.6518 53.5304 26.6518H39.3176V14.3906C39.3176 14.3892 39.3176 14.3892 39.3176 14.3892V5.48942H64.225V64.2236H49.1372Z" fill="#D33393" stroke="#F1F2F2" stroke-width="0.7" stroke-miterlimit="10"/>
<path d="M60.0362 27.8741C60.0138 27.7789 59.9872 27.6837 59.9494 27.5913C59.9088 27.4989 59.8612 27.4107 59.8066 27.3295C59.7534 27.2455 59.689 27.1685 59.6204 27.0985C59.549 27.0299 59.4734 26.9641 59.3852 26.9081C59.304 26.8535 59.2172 26.8073 59.1248 26.7681C59.0338 26.7317 58.9344 26.6995 58.8406 26.6827C58.6446 26.6421 58.4416 26.6421 58.247 26.6827C58.1504 26.6995 58.0524 26.7303 57.9614 26.7681C57.8718 26.8073 57.7836 26.8535 57.6982 26.9081C57.617 26.9641 57.54 27.0285 57.4686 27.0985C57.3986 27.1671 57.3384 27.2455 57.2782 27.3295C57.225 27.4107 57.176 27.4989 57.1382 27.5913C57.1018 27.6837 57.0696 27.7789 57.0514 27.8741C57.0304 27.9721 57.022 28.0729 57.022 28.1723C57.022 28.2717 57.0304 28.3711 57.0514 28.4677C57.0696 28.5657 57.1004 28.6609 57.1382 28.7519C57.1746 28.8443 57.225 28.9325 57.2782 29.0151C57.3384 29.0991 57.3986 29.1761 57.4686 29.2461C57.54 29.3175 57.617 29.3791 57.6982 29.4351C57.7836 29.4911 57.8704 29.5359 57.9614 29.5737C58.0524 29.6115 58.1504 29.6423 58.247 29.6619C58.345 29.6801 58.443 29.6913 58.5424 29.6913C58.6418 29.6913 58.7412 29.6801 58.8406 29.6619C58.9344 29.6423 59.0338 29.6115 59.1248 29.5737C59.2158 29.5359 59.304 29.4897 59.3852 29.4351C59.4734 29.3791 59.549 29.3175 59.6204 29.2461C59.689 29.1761 59.7534 29.0991 59.8066 29.0151C59.8612 28.9339 59.9074 28.8443 59.9494 28.7519C59.9858 28.6609 60.0138 28.5657 60.0362 28.4677C60.0544 28.3711 60.0642 28.2717 60.0642 28.1723C60.0628 28.0729 60.0544 27.9721 60.0362 27.8741Z" fill="#D33393" stroke="#F1F2F2" stroke-width="0.7" stroke-miterlimit="10"/>
<path d="M51.5719 7.05322C46.7125 7.05322 42.7603 11.0054 42.7603 15.8648C42.7603 20.7242 46.7125 24.6764 51.5719 24.6764C56.4285 24.6764 60.3821 20.7228 60.3821 15.8648C60.3821 11.0054 56.4285 7.05322 51.5719 7.05322ZM51.5719 21.6384C48.3869 21.6384 45.7969 19.0484 45.7969 15.8648C45.7969 12.6812 48.3869 10.0912 51.5719 10.0912C54.7513 10.0912 57.3441 12.6812 57.3441 15.8648C57.3441 19.0484 54.7513 21.6384 51.5719 21.6384Z" fill="#D33393" stroke="#F1F2F2" stroke-width="0.7" stroke-miterlimit="10"/>
<path d="M21.4564 51.3044C21.4396 51.2078 21.4074 51.1112 21.3682 51.0202C21.3304 50.9292 21.2842 50.8396 21.2282 50.757C21.175 50.6744 21.112 50.596 21.042 50.526C20.6892 50.1746 20.1642 50.0122 19.67 50.1116C19.5734 50.1312 19.4768 50.1578 19.3872 50.1998C19.2934 50.2376 19.2066 50.2838 19.124 50.3398C19.0414 50.3944 18.9644 50.4574 18.8944 50.5274C18.823 50.596 18.7586 50.6758 18.7054 50.7584C18.6494 50.841 18.6046 50.9292 18.5668 51.0216C18.529 51.1126 18.4982 51.2092 18.4786 51.3058C18.459 51.4038 18.4492 51.5046 18.4492 51.6026C18.4492 51.6992 18.459 51.8014 18.4786 51.8994C18.4982 51.996 18.529 52.094 18.5668 52.1836C18.6046 52.2746 18.6508 52.3656 18.7054 52.444C18.7586 52.5308 18.823 52.6078 18.8944 52.6778C18.963 52.7478 19.04 52.8108 19.124 52.8654C19.2066 52.9214 19.2948 52.9662 19.3872 53.0068C19.4768 53.0432 19.5734 53.0754 19.67 53.0936C19.7666 53.1146 19.8674 53.123 19.9654 53.123C20.3672 53.123 20.7578 52.9592 21.042 52.6792C21.112 52.6092 21.175 52.5322 21.2282 52.4454C21.2856 52.3656 21.3304 52.2774 21.3682 52.185C21.4074 52.094 21.4382 51.9974 21.4564 51.9008C21.476 51.8028 21.4858 51.7006 21.4858 51.604C21.4872 51.5018 21.476 51.4024 21.4564 51.3044Z" fill="#D33393" stroke="#F1F2F2" stroke-width="0.7" stroke-miterlimit="10"/>
</g>
<defs>
<clipPath id="clip0_26_2313">
<rect width="70" height="70" fill="white"/>
</clipPath>
</defs>
</svg>
