<svg width="70" height="70" viewBox="0 0 70 70" fill="none" xmlns="http://www.w3.org/2000/svg">
<g clip-path="url(#clip0_26_2299)">
<g clip-path="url(#clip1_26_2299)">
<path d="M64.3257 49.8232C63.7769 48.6458 62.7829 47.726 61.5551 47.2836C60.3287 46.837 58.9763 46.8972 57.7975 47.4502L45.0491 53.3806C45.8947 51.8616 45.8709 50.0052 44.9903 48.503C44.1069 47.0008 42.4941 46.0796 40.7483 46.0796H25.9965C23.3365 46.0796 20.9145 47.6098 19.7791 50.0136H17.1429V47.0638C17.1429 46.5206 16.7047 46.081 16.1587 46.081H6.32093C5.77773 46.081 5.33813 46.5206 5.33813 47.0638V66.7394C5.33813 67.2812 5.77633 67.7208 6.32093 67.7208H16.1587C16.7047 67.7208 17.1429 67.2812 17.1429 66.7394V64.7724H42.8301C43.5483 64.7682 44.2595 64.6156 44.9091 64.3146L61.9555 56.3654C64.4027 55.2048 65.4625 52.2858 64.3257 49.8232ZM15.1759 65.7524H7.30653V48.0452H15.1759V65.7524ZM61.1211 54.579L44.0775 62.5268C43.6883 62.7074 43.2599 62.7984 42.8287 62.7984H17.1429V51.982H20.4385C20.8585 51.982 21.2309 51.7188 21.3667 51.3226C22.0597 49.3528 23.9147 48.041 25.9979 48.0452H40.7511C42.3835 48.0452 43.7023 49.3654 43.7023 50.9978C43.7023 52.6274 42.3835 53.9476 40.7511 53.9476H31.9003V55.916H43.1885C43.9039 55.916 44.6151 55.7564 45.2619 55.4526L58.6333 49.231C59.3403 48.9006 60.1467 48.8628 60.8817 49.1274C61.6139 49.3934 62.2103 49.938 62.5393 50.6464C62.7227 51.0398 62.8151 51.4696 62.8151 51.8994C62.8123 53.0474 62.1543 54.0904 61.1211 54.579Z" fill="#D33393" stroke="#D33393" stroke-width="0.49" stroke-miterlimit="10"/>
<path d="M51.6124 5.46978H41.7046V2.97778C41.7046 2.06358 40.8982 1.31738 39.9042 1.31738H30.2176C29.2236 1.31738 28.4172 2.06358 28.4172 2.97778V5.46978H18.508C16.639 5.46978 15.127 6.98318 15.127 8.84938V31.1598C15.127 33.0274 16.639 34.5408 18.508 34.5408H51.6124C53.4814 34.5408 54.9934 33.0288 54.9934 31.1598V8.84938C54.9934 6.98318 53.4814 5.46978 51.6124 5.46978ZM30.2106 2.97778H39.9042C39.9868 2.97778 40.0358 3.01138 40.0442 2.98618V5.46838H30.0776L30.0622 3.02678C30.1014 2.99458 30.1588 2.97778 30.2106 2.97778ZM51.6124 32.879H18.508C17.5616 32.879 16.7888 32.1062 16.7888 31.1598V15.9348C20.3518 19.7722 28.6076 21.525 30.9834 21.9646C31.3642 24.2158 33.5062 25.7362 35.7574 25.3526C37.5018 25.0544 38.8654 23.6838 39.1454 21.9394C41.4638 21.3906 49.7602 19.2066 53.3344 15.1858V31.1584C53.3344 32.1062 52.5602 32.879 51.6124 32.879ZM32.5682 21.2506C32.5682 19.873 33.6812 18.76 35.0602 18.76C36.4392 18.76 37.5508 19.873 37.5508 21.2506C37.5508 22.6296 36.4392 23.7426 35.0602 23.7426C33.6812 23.7426 32.5682 22.6296 32.5682 21.2506ZM39.0712 20.2468C38.5238 18.0306 36.281 16.6754 34.0634 17.2214C32.5598 17.5966 31.3796 18.7754 31.031 20.2874C26.39 19.425 16.7888 16.6894 16.7888 12.1156V8.85078C16.7888 7.90438 17.5616 7.13018 18.508 7.13018H51.6124C52.5602 7.13018 53.333 7.90438 53.333 8.85078V11.284C53.3344 15.869 43.7388 19.1254 39.0712 20.2468Z" fill="#D33393" stroke="#D33393" stroke-width="1.05" stroke-miterlimit="10"/>
</g>
</g>
<defs>
<clipPath id="clip0_26_2299">
<rect width="70" height="70" fill="white"/>
</clipPath>
<clipPath id="clip1_26_2299">
<rect width="70" height="70" fill="white"/>
</clipPath>
</defs>
</svg>
