<svg width="70" height="70" viewBox="0 0 70 70" fill="none" xmlns="http://www.w3.org/2000/svg">
<g clip-path="url(#clip0_26_2336)">
<g clip-path="url(#clip1_26_2336)">
<path d="M49.4257 18.5766L29.0786 28.3838C28.7756 28.5295 28.5312 28.774 28.3856 29.0769L18.5763 49.4263C18.4426 49.7041 18.3986 50.0164 18.4503 50.3203C18.502 50.6242 18.6469 50.9045 18.8649 51.1225C19.083 51.3404 19.3633 51.4851 19.6672 51.5366C19.9711 51.5881 20.2835 51.544 20.5612 51.4102L40.9096 41.602C41.2118 41.4555 41.4562 41.2117 41.6036 40.9099L51.4108 20.5595C51.5448 20.2817 51.5891 19.9692 51.5375 19.6652C51.4858 19.3612 51.341 19.0807 51.1228 18.8628C50.9046 18.6448 50.6241 18.5002 50.32 18.4489C50.0159 18.3976 49.7033 18.4423 49.4257 18.5766ZM30.1522 32.2523L37.7342 39.8353L23.0977 46.8887L30.1522 32.2523ZM39.8349 37.7346L32.2528 30.1525L46.8894 23.0981L39.8349 37.7346Z" fill="#C11C81"/>
<path d="M34.9947 -0.004028C26.8955 -0.00513019 19.0465 2.80241 12.7852 7.93988C6.524 13.0773 2.23794 20.227 0.657428 28.1705C-0.923081 36.1139 0.299758 44.3596 4.11758 51.5025C7.93539 58.6454 14.112 64.2433 21.5948 67.3426C29.0775 70.4418 37.4034 70.8505 45.1537 68.4989C52.904 66.1474 59.599 61.1811 64.0979 54.4464C68.5969 47.7117 70.6213 39.6252 69.8262 31.5652C69.0312 23.5051 65.4659 15.9701 59.7378 10.2442C53.1754 3.68219 44.2751 -0.00418967 34.9947 -0.004028ZM57.6393 57.632C52.009 63.2927 44.4554 66.6285 36.479 66.9765V61.6053C36.479 61.2113 36.3226 60.8334 36.044 60.5548C35.7655 60.2762 35.3875 60.1198 34.9935 60.1198C34.5995 60.1198 34.2217 60.2762 33.9431 60.5548C33.6645 60.8334 33.5081 61.2113 33.5081 61.6053V66.9765C25.5378 66.6065 17.9928 63.2742 12.3509 57.6323C6.70899 51.9904 3.37666 44.4455 3.00673 36.4752H8.3779C8.76508 36.4648 9.13292 36.3035 9.40308 36.026C9.67325 35.7484 9.82435 35.3765 9.82435 34.9892C9.82435 34.6018 9.67325 34.2296 9.40308 33.9521C9.13292 33.6745 8.76508 33.5136 8.3779 33.5031H3.00673C3.37666 25.5328 6.70899 17.9877 12.3509 12.3458C17.9928 6.70385 25.5378 3.37152 33.5081 3.00159V8.3717C33.5081 8.76568 33.6645 9.14365 33.9431 9.42223C34.2217 9.70082 34.5995 9.85722 34.9935 9.85722C35.3875 9.85722 35.7655 9.70082 36.044 9.42223C36.3226 9.14365 36.479 8.76568 36.479 8.3717V3.00159C44.4495 3.37173 51.9947 6.70395 57.6369 12.3458C63.2791 17.9876 66.6118 25.5327 66.9825 33.5031H61.6082C61.221 33.5136 60.8532 33.6745 60.583 33.9521C60.3128 34.2296 60.1617 34.6018 60.1617 34.9892C60.1617 35.3765 60.3128 35.7484 60.583 36.026C60.8532 36.3035 61.221 36.4648 61.6082 36.4752H66.9825C66.6337 44.4502 63.2986 52.0022 57.6393 57.632Z" fill="#C11C81"/>
</g>
</g>
<defs>
<clipPath id="clip0_26_2336">
<rect width="70" height="70" fill="white"/>
</clipPath>
<clipPath id="clip1_26_2336">
<rect width="70" height="69.9989" fill="white" transform="translate(0 0.000488281)"/>
</clipPath>
</defs>
</svg>
